<svg width="230" height="230" viewBox="0 0 230 230" fill="none" xmlns="http://www.w3.org/2000/svg">
<path d="M118.665 72.1445L115 76.2001L124.583 100.625L139.557 113.877L150.319 100.756L143.75 81.4582L126.876 64.4665C123.969 66.7616 121.219 69.3194 118.665 72.1445V72.1445Z" fill="#CC2C2C"/>
<path d="M150.327 100.759C154.593 96.0394 159.735 93.6455 165.611 93.6455C174.006 93.6455 187.324 99.4435 187.324 115C187.324 130.558 174.006 136.355 165.612 136.355C159.735 136.355 154.593 133.962 150.327 129.242L139.557 113.877L115 76.2005L110.208 119.792L115 153.8L118.666 157.856C127.916 168.092 139.666 174.949 152.643 177.685C164.696 180.226 177.284 179.177 189.045 174.65C200.807 170.123 210.849 162.461 218.088 152.494C225.881 141.763 230 128.797 230 115C230 101.204 225.881 88.2387 218.087 77.5073C210.849 67.54 200.806 59.8791 189.045 55.3518C177.283 50.8242 164.695 49.7752 152.643 52.316C143.247 54.2971 134.501 58.4483 126.876 64.4674L150.327 100.759Z" fill="#FC3636"/>
<path d="M111.335 157.855L115 153.8L105.417 129.375L90.443 116.123L79.6806 129.244L86.25 148.542L103.124 165.533C106.031 163.238 108.781 160.681 111.335 157.855Z" fill="#FC3636"/>
<path d="M79.6734 129.241C75.4072 133.961 70.265 136.355 64.3888 136.355C55.9938 136.355 42.6758 130.557 42.6758 115C42.6758 99.4427 55.9938 93.645 64.3883 93.645C70.2646 93.645 75.4072 96.0385 79.673 100.758L90.4426 116.123L115 153.8V76.2001L111.335 72.1445C102.084 61.9082 90.3347 55.0518 77.3573 52.3151C65.3047 49.7743 52.7167 50.8237 40.9553 55.3505C29.1938 59.8777 19.1511 67.5391 11.9128 77.5064C4.11934 88.2378 0 101.203 0 115C0 128.797 4.11934 141.762 11.9128 152.493C19.1511 162.46 29.1938 170.121 40.9553 174.649C52.7167 179.176 65.3047 180.225 77.3573 177.684C86.7527 175.703 95.4985 171.552 103.124 165.533L79.6734 129.241Z" fill="#FC5B3F"/>
</svg>
